<svg width="27" height="26" viewBox="0 0 27 26" fill="none" xmlns="http://www.w3.org/2000/svg">
<path d="M14.7098 16.6787C14.7098 16.6787 20.6086 11.1818 23.826 8.18345C27.0434 5.18507 21.5895 -0.667534 18.372 2.33078C15.1545 5.32908 9.25581 10.826 9.25581 10.826" stroke="#304125" stroke-width="3" stroke-linecap="round"/>
<path d="M21.954 10.0669L16.5 4.21421" stroke="#304125" stroke-width="3" stroke-linecap="round"/>
<path d="M14.7098 16.6785L8.22698 17.2521L9.25575 10.8259" stroke="#304125" stroke-width="3" stroke-linecap="round"/>
<path d="M14.928 16.2144C15.7512 15.8642 16.4397 15.2696 16.8965 14.5247" stroke="#304125" stroke-width="3" stroke-linecap="round"/>
<path d="M10.2739 9.3501C9.97107 9.62797 9.70975 9.94829 9.50002 10.3013" stroke="#304125" stroke-width="3" stroke-linecap="round"/>
<path d="M9.5 10.3012C8.7588 9.05367 7.37345 8.21436 5.78675 8.21436C3.41924 8.21436 1.5 10.083 1.5 12.388C1.5 14.0995 2.55805 15.5703 4.07205 16.2144" stroke="#304125" stroke-width="3" stroke-linecap="round"/>
<path d="M9.5 22.1275C8.7588 23.375 7.37345 24.2144 5.78675 24.2144C3.41924 24.2144 1.5 22.3458 1.5 20.0407C1.5 18.3293 2.55805 16.8584 4.07205 16.2144" stroke="#304125" stroke-width="3" stroke-linecap="round"/>
<path d="M9.5 22.1275C10.2412 23.375 11.6266 24.2144 13.2133 24.2144C15.5808 24.2144 17.5 22.3458 17.5 20.0407C17.5 18.3293 16.4419 16.8584 14.928 16.2144" stroke="#304125" stroke-width="3" stroke-linecap="round"/>
</svg>
