<svg width="390" height="844" viewBox="0 0 390 844" fill="none" xmlns="http://www.w3.org/2000/svg">
<rect width="390" height="844" fill="#80A867"/>
<path d="M148.36 279.96C148.333 280.413 148.267 280.893 148.16 281.4C148.08 281.907 147.827 282.32 147.4 282.64C147.08 282.907 146.72 283.067 146.32 283.12C145.92 283.173 145.52 283.147 145.12 283.04C144.747 282.96 144.387 282.827 144.04 282.64C143.693 282.427 143.413 282.173 143.2 281.88C142.293 280.76 141.453 279.613 140.68 278.44C139.933 277.24 139.173 276.04 138.4 274.84L135.04 269.76C134.587 269.04 134.107 268.24 133.6 267.36C133.093 266.453 132.573 265.613 132.04 264.84L131.92 280.12V280.48C131.92 280.907 131.84 281.333 131.68 281.76C131.547 282.16 131.307 282.507 130.96 282.8C130.693 283.013 130.347 283.16 129.92 283.24C129.253 283.373 128.693 283.333 128.24 283.12C127.813 282.907 127.467 282.613 127.2 282.24C126.96 281.867 126.787 281.44 126.68 280.96C126.6 280.453 126.587 279.96 126.64 279.48V278.8L126.72 275.68L126.76 269.88C126.787 269.027 126.8 268.16 126.8 267.28C126.8 266.373 126.8 265.453 126.8 264.52C126.773 263.373 126.773 262.16 126.8 260.88C126.853 259.6 126.907 258.4 126.96 257.28C127.013 256.667 127.16 256.147 127.4 255.72C127.507 255.347 127.787 255.027 128.24 254.76C128.533 254.573 128.907 254.453 129.36 254.4C129.84 254.347 130.253 254.36 130.6 254.44C130.733 254.493 130.867 254.56 131 254.64C131.133 254.693 131.267 254.76 131.4 254.84C131.533 254.947 131.653 255.053 131.76 255.16C131.893 255.267 132.013 255.387 132.12 255.52C132.253 255.653 132.373 255.8 132.48 255.96C132.587 256.093 132.693 256.227 132.8 256.36C132.88 256.52 132.96 256.667 133.04 256.8C133.12 256.933 133.213 257.067 133.32 257.2L133.76 257.84L143 272.4V269.76C143 268.907 142.987 268.04 142.96 267.16C142.96 266.253 142.947 265.32 142.92 264.36C142.92 263.24 142.92 262.04 142.92 260.76C142.947 259.48 142.987 258.28 143.04 257.16C143.04 256.707 143.173 256.187 143.44 255.6C143.573 255.253 143.8 254.973 144.12 254.76C144.44 254.547 144.8 254.4 145.2 254.32C145.6 254.24 146 254.24 146.4 254.32C146.8 254.4 147.147 254.56 147.44 254.8C147.52 254.88 147.6 254.973 147.68 255.08C147.76 255.187 147.827 255.307 147.88 255.44C148.013 255.787 148.093 256.093 148.12 256.36C148.2 256.733 148.24 257.067 148.24 257.36C148.24 260.693 148.24 264.093 148.24 267.56C148.267 271.027 148.293 274.427 148.32 277.76C148.32 278.133 148.333 278.507 148.36 278.88C148.387 279.227 148.387 279.587 148.36 279.96ZM156.76 264.92C157.64 264.493 158.56 264.187 159.52 264C160.48 263.813 161.427 263.773 162.36 263.88C163.32 263.987 164.24 264.24 165.12 264.64C166.027 265.04 166.853 265.6 167.6 266.32C168.213 266.933 168.747 267.68 169.2 268.56C169.653 269.413 169.987 270.253 170.2 271.08C170.653 272.547 170.72 274.027 170.4 275.52C170.08 277.013 169.533 278.4 168.76 279.68C168.387 280.267 167.92 280.8 167.36 281.28C166.827 281.733 166.253 282.107 165.64 282.4C164.84 282.773 163.973 283.027 163.04 283.16C162.107 283.32 161.2 283.36 160.32 283.28C158.72 283.2 157.307 282.8 156.08 282.08C154.88 281.36 153.907 280.44 153.16 279.32C152.44 278.2 151.96 276.933 151.72 275.52C151.507 274.08 151.6 272.613 152 271.12C152.427 269.52 153.04 268.227 153.84 267.24C154.667 266.227 155.64 265.453 156.76 264.92ZM157.96 270.28C157.56 270.653 157.253 271.12 157.04 271.68C156.827 272.24 156.693 272.827 156.64 273.44C156.587 274.027 156.627 274.627 156.76 275.24C156.92 275.827 157.16 276.36 157.48 276.84C157.747 277.24 158.227 277.573 158.92 277.84C159.613 278.107 160.333 278.267 161.08 278.32C161.933 278.373 162.68 278.147 163.32 277.64C163.96 277.107 164.44 276.453 164.76 275.68C165.107 274.907 165.267 274.067 165.24 273.16C165.213 272.253 164.973 271.427 164.52 270.68C164.2 270.147 163.747 269.76 163.16 269.52C162.6 269.253 162 269.12 161.36 269.12C160.747 269.093 160.133 269.187 159.52 269.4C158.907 269.587 158.387 269.88 157.96 270.28ZM178.708 283C178.708 283.693 178.454 284.28 177.948 284.76C177.468 285.267 176.881 285.52 176.188 285.52C175.494 285.52 174.894 285.267 174.388 284.76C173.908 284.28 173.668 283.693 173.668 283C173.668 282.307 173.908 281.707 174.388 281.2C174.894 280.693 175.494 280.44 176.188 280.44C176.881 280.44 177.468 280.693 177.948 281.2C178.454 281.707 178.708 282.307 178.708 283ZM194.668 254.96C194.988 254.8 195.348 254.707 195.748 254.68C196.148 254.627 196.574 254.6 197.028 254.6H211.508C211.881 254.6 212.281 254.587 212.708 254.56C213.134 254.533 213.521 254.613 213.868 254.8C214.348 255.067 214.628 255.493 214.708 256.08C214.788 256.64 214.734 257.28 214.548 258C214.388 258.693 214.134 259.44 213.788 260.24C213.441 261.013 213.081 261.76 212.708 262.48C212.334 263.173 211.974 263.813 211.628 264.4C211.281 264.96 211.041 265.387 210.908 265.68C210.481 266.48 210.081 267.213 209.708 267.88C209.361 268.547 209.014 269.213 208.668 269.88C208.348 270.547 208.001 271.213 207.628 271.88C207.281 272.547 206.894 273.28 206.468 274.08C205.934 275.173 205.321 276.32 204.628 277.52C203.961 278.693 203.321 279.8 202.708 280.84C202.521 281.16 202.308 281.48 202.068 281.8C201.828 282.12 201.548 282.387 201.228 282.6C200.934 282.813 200.588 282.947 200.188 283C199.814 283.053 199.401 282.973 198.948 282.76C198.254 282.387 197.801 281.84 197.588 281.12C197.401 280.4 197.468 279.733 197.788 279.12C198.294 278.213 198.788 277.307 199.268 276.4C199.748 275.467 200.228 274.547 200.708 273.64C201.428 272.28 202.094 270.973 202.708 269.72C203.348 268.467 204.028 267.16 204.748 265.8C204.961 265.4 205.254 264.92 205.628 264.36C206.001 263.773 206.348 263.173 206.668 262.56C207.014 261.947 207.281 261.347 207.468 260.76C207.681 260.147 207.748 259.613 207.668 259.16C206.734 259.08 205.881 259.053 205.108 259.08C204.361 259.08 203.534 259.08 202.628 259.08H198.748C198.268 259.08 197.748 259.093 197.188 259.12C196.654 259.147 196.148 259.12 195.668 259.04C195.188 258.933 194.774 258.733 194.428 258.44C194.108 258.147 193.908 257.667 193.828 257C193.774 256.44 193.828 256 193.988 255.68C194.148 255.36 194.374 255.12 194.668 254.96ZM218.886 254.96C219.206 254.8 219.566 254.707 219.966 254.68C220.366 254.627 220.793 254.6 221.246 254.6H235.726C236.1 254.6 236.5 254.587 236.926 254.56C237.353 254.533 237.74 254.613 238.086 254.8C238.566 255.067 238.846 255.493 238.926 256.08C239.006 256.64 238.953 257.28 238.766 258C238.606 258.693 238.353 259.44 238.006 260.24C237.66 261.013 237.3 261.76 236.926 262.48C236.553 263.173 236.193 263.813 235.846 264.4C235.5 264.96 235.26 265.387 235.126 265.68C234.7 266.48 234.3 267.213 233.926 267.88C233.58 268.547 233.233 269.213 232.886 269.88C232.566 270.547 232.22 271.213 231.846 271.88C231.5 272.547 231.113 273.28 230.686 274.08C230.153 275.173 229.54 276.32 228.846 277.52C228.18 278.693 227.54 279.8 226.926 280.84C226.74 281.16 226.526 281.48 226.286 281.8C226.046 282.12 225.766 282.387 225.446 282.6C225.153 282.813 224.806 282.947 224.406 283C224.033 283.053 223.62 282.973 223.166 282.76C222.473 282.387 222.02 281.84 221.806 281.12C221.62 280.4 221.686 279.733 222.006 279.12C222.513 278.213 223.006 277.307 223.486 276.4C223.966 275.467 224.446 274.547 224.926 273.64C225.646 272.28 226.313 270.973 226.926 269.72C227.566 268.467 228.246 267.16 228.966 265.8C229.18 265.4 229.473 264.92 229.846 264.36C230.22 263.773 230.566 263.173 230.886 262.56C231.233 261.947 231.5 261.347 231.686 260.76C231.9 260.147 231.966 259.613 231.886 259.16C230.953 259.08 230.1 259.053 229.326 259.08C228.58 259.08 227.753 259.08 226.846 259.08H222.966C222.486 259.08 221.966 259.093 221.406 259.12C220.873 259.147 220.366 259.12 219.886 259.04C219.406 258.933 218.993 258.733 218.646 258.44C218.326 258.147 218.126 257.667 218.046 257C217.993 256.44 218.046 256 218.206 255.68C218.366 255.36 218.593 255.12 218.886 254.96ZM243.105 254.96C243.425 254.8 243.785 254.707 244.185 254.68C244.585 254.627 245.012 254.6 245.465 254.6H259.945C260.318 254.6 260.718 254.587 261.145 254.56C261.572 254.533 261.958 254.613 262.305 254.8C262.785 255.067 263.065 255.493 263.145 256.08C263.225 256.64 263.172 257.28 262.985 258C262.825 258.693 262.572 259.44 262.225 260.24C261.878 261.013 261.518 261.76 261.145 262.48C260.772 263.173 260.412 263.813 260.065 264.4C259.718 264.96 259.478 265.387 259.345 265.68C258.918 266.48 258.518 267.213 258.145 267.88C257.798 268.547 257.452 269.213 257.105 269.88C256.785 270.547 256.438 271.213 256.065 271.88C255.718 272.547 255.332 273.28 254.905 274.08C254.372 275.173 253.758 276.32 253.065 277.52C252.398 278.693 251.758 279.8 251.145 280.84C250.958 281.16 250.745 281.48 250.505 281.8C250.265 282.12 249.985 282.387 249.665 282.6C249.372 282.813 249.025 282.947 248.625 283C248.252 283.053 247.838 282.973 247.385 282.76C246.692 282.387 246.238 281.84 246.025 281.12C245.838 280.4 245.905 279.733 246.225 279.12C246.732 278.213 247.225 277.307 247.705 276.4C248.185 275.467 248.665 274.547 249.145 273.64C249.865 272.28 250.532 270.973 251.145 269.72C251.785 268.467 252.465 267.16 253.185 265.8C253.398 265.4 253.692 264.92 254.065 264.36C254.438 263.773 254.785 263.173 255.105 262.56C255.452 261.947 255.718 261.347 255.905 260.76C256.118 260.147 256.185 259.613 256.105 259.16C255.172 259.08 254.318 259.053 253.545 259.08C252.798 259.08 251.972 259.08 251.065 259.08H247.185C246.705 259.08 246.185 259.093 245.625 259.12C245.092 259.147 244.585 259.12 244.105 259.04C243.625 258.933 243.212 258.733 242.865 258.44C242.545 258.147 242.345 257.667 242.265 257C242.212 256.44 242.265 256 242.425 255.68C242.585 255.36 242.812 255.12 243.105 254.96Z" fill="white"/>
<path d="M200.307 372.337C216.674 394.577 217.841 433.93 195.6 450.297C173.359 466.665 136.134 453.85 119.766 431.609C103.398 409.369 108.159 378.07 130.4 361.703C152.641 345.335 183.939 350.096 200.307 372.337Z" fill="white"/>
<path d="M190.563 372.27C174.196 394.511 173.03 433.863 195.27 450.231C217.511 466.598 254.736 453.783 271.104 431.543C287.472 409.302 282.711 378.004 260.47 361.636C238.229 345.269 206.931 350.03 190.563 372.27Z" fill="white"/>
<path d="M190.563 502.597C174.196 480.356 173.03 441.004 195.27 424.636C217.511 408.269 254.736 421.084 271.104 443.324C287.472 465.565 282.711 496.863 260.47 513.231C238.229 529.598 206.931 524.837 190.563 502.597Z" fill="white"/>
<path d="M200.177 502.597C216.544 480.356 217.711 441.004 195.47 424.636C173.229 408.269 136.004 421.084 119.636 443.324C103.269 465.565 108.03 496.863 130.27 513.231C152.511 529.598 183.809 524.837 200.177 502.597Z" fill="white"/>
<ellipse cx="181.5" cy="424.5" rx="4.5" ry="11.5" fill="#80A867"/>
<ellipse cx="212.5" cy="424.5" rx="4.5" ry="11.5" fill="#80A867"/>
<path d="M166 448C166 448 166.5 460 196 460C225.5 460 228 448 228 448" stroke="#80A867" stroke-width="5" stroke-linecap="round"/>
<path d="M158.5 452.5L170.5 442.5" stroke="#80A867" stroke-width="5" stroke-linecap="round"/>
</svg>
