<svg width="155" height="158" viewBox="0 0 155 158" fill="none" xmlns="http://www.w3.org/2000/svg">
<path d="M82.5758 30.7935C94.8286 47.7723 95.7017 77.8142 79.0523 90.3094C62.4029 102.805 34.5359 93.0215 22.283 76.0428C10.0301 59.064 13.5942 35.1707 30.2436 22.6754C46.893 10.1802 70.3229 13.8148 82.5758 30.7935Z" fill="#80A867"/>
<path d="M72.2821 30.7427C60.0292 47.7215 59.1561 77.7634 75.8055 90.2586C92.4549 102.754 120.322 92.9707 132.575 75.992C144.828 59.0133 141.264 35.1199 124.614 22.6246C107.965 10.1294 84.5349 13.764 72.2821 30.7427Z" fill="#80A867"/>
<path d="M72.2821 127.235C60.0292 110.257 59.1561 80.2147 75.8055 67.7195C92.4549 55.2243 120.322 65.0074 132.575 81.9862C144.828 98.9649 141.264 122.858 124.614 135.354C107.965 147.849 84.5349 144.214 72.2821 127.235Z" fill="#80A867"/>
<path d="M82.4786 127.235C94.7314 110.257 95.6045 80.2147 78.9551 67.7195C62.3057 55.2243 34.4386 65.0074 22.1858 81.9862C9.93291 98.9649 13.497 122.858 30.1464 135.354C46.7958 147.849 70.2257 144.214 82.4786 127.235Z" fill="#80A867"/>
<ellipse cx="65.4971" cy="67.6155" rx="3.36871" ry="8.77922" fill="white"/>
<ellipse cx="88.7038" cy="67.6155" rx="3.36871" ry="8.77922" fill="white"/>
<path d="M53.8938 85.5557C53.8938 85.5557 54.2681 94.7166 76.3519 94.7166C98.4356 94.7166 100.307 85.5557 100.307 85.5557" stroke="white" stroke-width="5" stroke-linecap="round"/>
<path d="M48.2793 88.9909L57.2625 81.3568" stroke="white" stroke-width="5" stroke-linecap="round"/>
</svg>
