<svg width="137" height="32" viewBox="0 0 137 32" fill="none" xmlns="http://www.w3.org/2000/svg">
<path d="M21.8 25.76C21.7733 26.2133 21.7067 26.6933 21.6 27.2C21.52 27.7067 21.2667 28.12 20.84 28.44C20.52 28.7067 20.16 28.8667 19.76 28.92C19.36 28.9733 18.96 28.9467 18.56 28.84C18.1867 28.76 17.8267 28.6267 17.48 28.44C17.1333 28.2267 16.8533 27.9733 16.64 27.68C15.7333 26.56 14.8933 25.4133 14.12 24.24C13.3733 23.04 12.6133 21.84 11.84 20.64L8.48 15.56C8.02667 14.84 7.54667 14.04 7.04 13.16C6.53334 12.2533 6.01334 11.4133 5.48 10.64L5.36 25.92V26.28C5.36 26.7067 5.28 27.1333 5.12 27.56C4.98667 27.96 4.74667 28.3067 4.4 28.6C4.13334 28.8133 3.78667 28.96 3.36 29.04C2.69334 29.1733 2.13334 29.1333 1.68 28.92C1.25334 28.7067 0.906669 28.4133 0.640003 28.04C0.400003 27.6667 0.226669 27.24 0.120003 26.76C0.0400025 26.2533 0.0266691 25.76 0.0800025 25.28V24.6L0.160002 21.48L0.200003 15.68C0.226669 14.8267 0.240003 13.96 0.240003 13.08C0.240003 12.1733 0.240003 11.2533 0.240003 10.32C0.213336 9.17332 0.213336 7.95999 0.240003 6.67999C0.293336 5.39999 0.346669 4.19999 0.400003 3.07999C0.453336 2.46665 0.600003 1.94665 0.840003 1.51999C0.946669 1.14665 1.22667 0.826653 1.68 0.559987C1.97334 0.373319 2.34667 0.253319 2.8 0.199986C3.28 0.146654 3.69334 0.159987 4.04 0.239986C4.17334 0.29332 4.30667 0.359987 4.44 0.439986C4.57334 0.49332 4.70667 0.559987 4.84 0.639986C4.97334 0.746652 5.09334 0.853319 5.2 0.959986C5.33334 1.06665 5.45334 1.18665 5.56 1.31999C5.69334 1.45332 5.81334 1.59999 5.92 1.75999C6.02667 1.89332 6.13334 2.02665 6.24 2.15999C6.32 2.31999 6.4 2.46665 6.48 2.59999C6.56 2.73332 6.65334 2.86665 6.76 2.99999L7.2 3.63999L16.44 18.2V15.56C16.44 14.7067 16.4267 13.84 16.4 12.96C16.4 12.0533 16.3867 11.12 16.36 10.16C16.36 9.03999 16.36 7.83999 16.36 6.55999C16.3867 5.27999 16.4267 4.07999 16.48 2.95999C16.48 2.50665 16.6133 1.98665 16.88 1.39999C17.0133 1.05332 17.24 0.77332 17.56 0.559987C17.88 0.346653 18.24 0.199986 18.64 0.119987C19.04 0.0399869 19.44 0.0399869 19.84 0.119987C20.24 0.199986 20.5867 0.359986 20.88 0.599986C20.96 0.679987 21.04 0.77332 21.12 0.879987C21.2 0.986654 21.2667 1.10665 21.32 1.23999C21.4533 1.58665 21.5333 1.89332 21.56 2.15999C21.64 2.53332 21.68 2.86665 21.68 3.15999C21.68 6.49332 21.68 9.89332 21.68 13.36C21.7067 16.8267 21.7333 20.2267 21.76 23.56C21.76 23.9333 21.7733 24.3067 21.8 24.68C21.8267 25.0267 21.8267 25.3867 21.8 25.76ZM30.2 10.72C31.08 10.2933 32 9.98665 32.96 9.79999C33.92 9.61332 34.8667 9.57332 35.8 9.67999C36.76 9.78665 37.68 10.04 38.56 10.44C39.4667 10.84 40.2933 11.4 41.04 12.12C41.6533 12.7333 42.1867 13.48 42.64 14.36C43.0933 15.2133 43.4267 16.0533 43.64 16.88C44.0933 18.3467 44.16 19.8267 43.84 21.32C43.52 22.8133 42.9733 24.2 42.2 25.48C41.8267 26.0667 41.36 26.6 40.8 27.08C40.2667 27.5333 39.6933 27.9067 39.08 28.2C38.28 28.5733 37.4133 28.8267 36.48 28.96C35.5467 29.12 34.64 29.16 33.76 29.08C32.16 29 30.7467 28.6 29.52 27.88C28.32 27.16 27.3467 26.24 26.6 25.12C25.88 24 25.4 22.7333 25.16 21.32C24.9467 19.88 25.04 18.4133 25.44 16.92C25.8667 15.32 26.48 14.0267 27.28 13.04C28.1067 12.0267 29.08 11.2533 30.2 10.72ZM31.4 16.08C31 16.4533 30.6933 16.92 30.48 17.48C30.2667 18.04 30.1333 18.6267 30.08 19.24C30.0267 19.8267 30.0667 20.4267 30.2 21.04C30.36 21.6267 30.6 22.16 30.92 22.64C31.1867 23.04 31.6667 23.3733 32.36 23.64C33.0533 23.9067 33.7733 24.0667 34.52 24.12C35.3733 24.1733 36.12 23.9467 36.76 23.44C37.4 22.9067 37.88 22.2533 38.2 21.48C38.5467 20.7067 38.7067 19.8667 38.68 18.96C38.6533 18.0533 38.4133 17.2267 37.96 16.48C37.64 15.9467 37.1867 15.56 36.6 15.32C36.04 15.0533 35.44 14.92 34.8 14.92C34.1867 14.8933 33.5733 14.9867 32.96 15.2C32.3467 15.3867 31.8267 15.68 31.4 16.08ZM52.1475 28.8C52.1475 29.4933 51.8942 30.08 51.3875 30.56C50.9075 31.0667 50.3208 31.32 49.6275 31.32C48.9342 31.32 48.3342 31.0667 47.8275 30.56C47.3475 30.08 47.1075 29.4933 47.1075 28.8C47.1075 28.1067 47.3475 27.5067 47.8275 27C48.3342 26.4933 48.9342 26.24 49.6275 26.24C50.3208 26.24 50.9075 26.4933 51.3875 27C51.8942 27.5067 52.1475 28.1067 52.1475 28.8ZM68.1075 0.759986C68.4275 0.599987 68.7875 0.506654 69.1875 0.479988C69.5875 0.426653 70.0142 0.399986 70.4675 0.399986H84.9475C85.3208 0.399986 85.7208 0.386653 86.1475 0.359987C86.5742 0.33332 86.9608 0.41332 87.3075 0.599986C87.7875 0.866652 88.0675 1.29332 88.1475 1.87999C88.2275 2.43999 88.1742 3.07999 87.9875 3.79999C87.8275 4.49332 87.5742 5.23999 87.2275 6.03999C86.8808 6.81332 86.5208 7.55999 86.1475 8.27999C85.7742 8.97332 85.4142 9.61332 85.0675 10.2C84.7208 10.76 84.4808 11.1867 84.3475 11.48C83.9208 12.28 83.5208 13.0133 83.1475 13.68C82.8008 14.3467 82.4542 15.0133 82.1075 15.68C81.7875 16.3467 81.4408 17.0133 81.0675 17.68C80.7208 18.3467 80.3342 19.08 79.9075 19.88C79.3742 20.9733 78.7608 22.12 78.0675 23.32C77.4008 24.4933 76.7608 25.6 76.1475 26.64C75.9608 26.96 75.7475 27.28 75.5075 27.6C75.2675 27.92 74.9875 28.1867 74.6675 28.4C74.3742 28.6133 74.0275 28.7467 73.6275 28.8C73.2542 28.8533 72.8408 28.7733 72.3875 28.56C71.6942 28.1867 71.2408 27.64 71.0275 26.92C70.8408 26.2 70.9075 25.5333 71.2275 24.92C71.7342 24.0133 72.2275 23.1067 72.7075 22.2C73.1875 21.2667 73.6675 20.3467 74.1475 19.44C74.8675 18.08 75.5342 16.7733 76.1475 15.52C76.7875 14.2667 77.4675 12.96 78.1875 11.6C78.4008 11.2 78.6942 10.72 79.0675 10.16C79.4408 9.57332 79.7875 8.97332 80.1075 8.35999C80.4542 7.74665 80.7208 7.14665 80.9075 6.55999C81.1208 5.94665 81.1875 5.41332 81.1075 4.95999C80.1742 4.87999 79.3208 4.85332 78.5475 4.87999C77.8008 4.87999 76.9742 4.87999 76.0675 4.87999H72.1875C71.7075 4.87999 71.1875 4.89332 70.6275 4.91999C70.0942 4.94665 69.5875 4.91999 69.1075 4.83999C68.6275 4.73332 68.2142 4.53332 67.8675 4.23999C67.5475 3.94665 67.3475 3.46665 67.2675 2.79999C67.2142 2.23999 67.2675 1.79999 67.4275 1.47999C67.5875 1.15999 67.8142 0.919986 68.1075 0.759986ZM92.3263 0.759986C92.6463 0.599987 93.0063 0.506654 93.4063 0.479988C93.8063 0.426653 94.2329 0.399986 94.6863 0.399986H109.166C109.54 0.399986 109.94 0.386653 110.366 0.359987C110.793 0.33332 111.18 0.41332 111.526 0.599986C112.006 0.866652 112.286 1.29332 112.366 1.87999C112.446 2.43999 112.393 3.07999 112.206 3.79999C112.046 4.49332 111.793 5.23999 111.446 6.03999C111.1 6.81332 110.74 7.55999 110.366 8.27999C109.993 8.97332 109.633 9.61332 109.286 10.2C108.94 10.76 108.7 11.1867 108.566 11.48C108.14 12.28 107.74 13.0133 107.366 13.68C107.02 14.3467 106.673 15.0133 106.326 15.68C106.006 16.3467 105.66 17.0133 105.286 17.68C104.94 18.3467 104.553 19.08 104.126 19.88C103.593 20.9733 102.98 22.12 102.286 23.32C101.62 24.4933 100.98 25.6 100.366 26.64C100.18 26.96 99.9663 27.28 99.7263 27.6C99.4863 27.92 99.2063 28.1867 98.8863 28.4C98.5929 28.6133 98.2463 28.7467 97.8463 28.8C97.4729 28.8533 97.0596 28.7733 96.6063 28.56C95.9129 28.1867 95.4596 27.64 95.2463 26.92C95.0596 26.2 95.1263 25.5333 95.4463 24.92C95.9529 24.0133 96.4463 23.1067 96.9263 22.2C97.4063 21.2667 97.8863 20.3467 98.3663 19.44C99.0863 18.08 99.7529 16.7733 100.366 15.52C101.006 14.2667 101.686 12.96 102.406 11.6C102.62 11.2 102.913 10.72 103.286 10.16C103.66 9.57332 104.006 8.97332 104.326 8.35999C104.673 7.74665 104.94 7.14665 105.126 6.55999C105.34 5.94665 105.406 5.41332 105.326 4.95999C104.393 4.87999 103.54 4.85332 102.766 4.87999C102.02 4.87999 101.193 4.87999 100.286 4.87999H96.4063C95.9263 4.87999 95.4063 4.89332 94.8463 4.91999C94.3129 4.94665 93.8063 4.91999 93.3263 4.83999C92.8463 4.73332 92.4329 4.53332 92.0863 4.23999C91.7663 3.94665 91.5663 3.46665 91.4863 2.79999C91.4329 2.23999 91.4863 1.79999 91.6463 1.47999C91.8063 1.15999 92.0329 0.919986 92.3263 0.759986ZM116.545 0.759986C116.865 0.599987 117.225 0.506654 117.625 0.479988C118.025 0.426653 118.452 0.399986 118.905 0.399986H133.385C133.758 0.399986 134.158 0.386653 134.585 0.359987C135.012 0.33332 135.398 0.41332 135.745 0.599986C136.225 0.866652 136.505 1.29332 136.585 1.87999C136.665 2.43999 136.612 3.07999 136.425 3.79999C136.265 4.49332 136.012 5.23999 135.665 6.03999C135.318 6.81332 134.958 7.55999 134.585 8.27999C134.212 8.97332 133.852 9.61332 133.505 10.2C133.158 10.76 132.918 11.1867 132.785 11.48C132.358 12.28 131.958 13.0133 131.585 13.68C131.238 14.3467 130.892 15.0133 130.545 15.68C130.225 16.3467 129.878 17.0133 129.505 17.68C129.158 18.3467 128.772 19.08 128.345 19.88C127.812 20.9733 127.198 22.12 126.505 23.32C125.838 24.4933 125.198 25.6 124.585 26.64C124.398 26.96 124.185 27.28 123.945 27.6C123.705 27.92 123.425 28.1867 123.105 28.4C122.812 28.6133 122.465 28.7467 122.065 28.8C121.692 28.8533 121.278 28.7733 120.825 28.56C120.132 28.1867 119.678 27.64 119.465 26.92C119.278 26.2 119.345 25.5333 119.665 24.92C120.172 24.0133 120.665 23.1067 121.145 22.2C121.625 21.2667 122.105 20.3467 122.585 19.44C123.305 18.08 123.972 16.7733 124.585 15.52C125.225 14.2667 125.905 12.96 126.625 11.6C126.838 11.2 127.132 10.72 127.505 10.16C127.878 9.57332 128.225 8.97332 128.545 8.35999C128.892 7.74665 129.158 7.14665 129.345 6.55999C129.558 5.94665 129.625 5.41332 129.545 4.95999C128.612 4.87999 127.758 4.85332 126.985 4.87999C126.238 4.87999 125.412 4.87999 124.505 4.87999H120.625C120.145 4.87999 119.625 4.89332 119.065 4.91999C118.532 4.94665 118.025 4.91999 117.545 4.83999C117.065 4.73332 116.652 4.53332 116.305 4.23999C115.985 3.94665 115.785 3.46665 115.705 2.79999C115.652 2.23999 115.705 1.79999 115.865 1.47999C116.025 1.15999 116.252 0.919986 116.545 0.759986Z" fill="#80A867"/>
</svg>
