<svg width="287" height="466" viewBox="0 0 287 466" fill="none" xmlns="http://www.w3.org/2000/svg">
<path d="M62.0759 65.6192L62.0739 65.6185C62.0682 65.6165 62.0563 65.6128 62.0395 65.6072C62.0058 65.5959 61.95 65.5772 61.8735 65.5529C61.7204 65.5042 61.4838 65.4318 61.1715 65.3447C60.5461 65.1702 59.6198 64.9375 58.456 64.7167C56.1228 64.2742 52.8668 63.8871 49.1786 64.1026C41.8368 64.5314 32.8514 67.3287 25.8491 76.8511C19.2056 85.886 17.9845 101.246 23.7853 115.127C29.5131 128.833 42.0157 140.839 62.4835 143.159C77.3561 144.844 97.5081 145.904 113.987 146.543C122.216 146.862 129.513 147.075 134.752 147.209C137.197 147.271 139.194 147.314 140.627 147.344C140.607 145.797 140.577 143.617 140.54 140.947C140.463 135.359 140.351 127.622 140.213 119.024C139.936 101.823 139.555 81.1957 139.132 67.4406C138.498 46.8311 128.491 32.8331 116.345 25.3754C104.054 17.8291 89.8594 17.1065 80.8087 22.5672C69.1778 29.5847 65.3337 39.5052 64.34 47.7295C63.8391 51.8756 64.067 55.5963 64.4225 58.2822C64.5997 59.6216 64.8077 60.6944 64.9682 61.4214C65.0484 61.7844 65.1166 62.0605 65.163 62.2398C65.1861 62.3291 65.2033 62.3948 65.2143 62.4346C65.2197 62.4543 65.2243 62.4678 65.2263 62.4749C65.2271 62.4778 65.2274 62.4799 65.2275 62.4805L66.6169 67.2226L62.0759 65.6192ZM62.0759 65.6192L62.0765 65.6199L62.0779 65.62C62.0779 65.62 62.077 65.6196 62.0759 65.6192Z" fill="#AACD93" stroke="#80A867" stroke-width="5"/>
<path d="M144.508 142.531C144.52 137.12 144.562 129.582 144.686 121.079C144.934 104.052 145.51 83.2237 146.808 67.8318C148.595 46.6503 159.936 33.4754 173.075 27.2555C186.383 20.9561 201.282 21.871 210.18 28.5285C219.558 35.5451 222.467 44.7597 223.047 52.3295C223.339 56.1326 223.036 59.5035 222.66 61.9221C222.472 63.1284 222.268 64.0899 222.113 64.7393C222.036 65.0634 221.971 65.3091 221.927 65.4682C221.906 65.5477 221.889 65.6065 221.879 65.6414C221.874 65.6584 221.871 65.6699 221.869 65.6758L220.42 70.3974L224.974 68.8588C224.974 68.8587 224.976 68.8577 224.979 68.8567C224.985 68.8545 224.999 68.8502 225.018 68.8441C225.056 68.8318 225.12 68.8125 225.206 68.7866C225.378 68.7347 225.644 68.6574 225.994 68.5665C226.694 68.3846 227.727 68.1462 229.02 67.9332C231.612 67.506 235.209 67.1878 239.235 67.6119C247.22 68.4533 256.912 72.1993 263.968 84.0515C269.459 93.2745 269.078 107.945 262.048 120.801C255.102 133.506 241.776 144.149 221.837 145.266C208.53 146.011 188.568 146.869 171.921 147.54C163.601 147.876 156.112 148.166 150.703 148.371C148.117 148.469 146.006 148.548 144.508 148.603C144.505 147.123 144.503 145.059 144.508 142.531Z" fill="#AACD93" stroke="#80A867" stroke-width="5"/>
<path d="M146.028 138.188C143.697 138.077 141.366 137.966 139.036 137.854C138.563 143.39 138.127 148.815 137.721 154.294C133.172 252.285 123.649 355.339 177.809 450.772C181.233 455.801 185.185 460.846 189.525 465.473C197.065 457.928 204.604 450.383 212.144 442.838C208.821 439.816 205.576 436.293 202.613 432.596C151.047 357.97 147.753 250.901 145.965 154.591C145.954 149.13 145.972 143.717 146.028 138.188Z" fill="#80A867"/>
</svg>
