<svg width="211" height="465" viewBox="0 0 211 465" fill="none" xmlns="http://www.w3.org/2000/svg">
<path d="M62.0756 65.6192L62.0736 65.6185C62.0679 65.6165 62.056 65.6128 62.0392 65.6072C62.0056 65.5959 61.9498 65.5772 61.8733 65.5529C61.7202 65.5042 61.4835 65.4318 61.1713 65.3447C60.5459 65.1702 59.6195 64.9375 58.4558 64.7167C56.1226 64.2742 52.8665 63.8871 49.1783 64.1026C41.8365 64.5314 32.8512 67.3287 25.8488 76.8511C19.2053 85.886 17.9842 101.246 23.785 115.127C29.5128 128.833 42.0154 140.839 62.4832 143.159C77.3559 144.844 97.5079 145.904 113.987 146.543C122.216 146.862 129.513 147.075 134.751 147.209C137.197 147.271 139.193 147.314 140.627 147.344C140.607 145.797 140.577 143.617 140.54 140.947C140.463 135.359 140.351 127.622 140.213 119.024C139.936 101.823 139.554 81.1957 139.131 67.4406C138.498 46.8311 128.491 32.8331 116.345 25.3754C104.054 17.8291 89.8592 17.1065 80.8085 22.5672C69.1776 29.5847 65.3334 39.5052 64.3398 47.7295C63.8388 51.8756 64.0668 55.5963 64.4222 58.2822C64.5995 59.6216 64.8075 60.6944 64.968 61.4214C65.0481 61.7844 65.1164 62.0605 65.1628 62.2398C65.1859 62.3291 65.2031 62.3948 65.2141 62.4346C65.2195 62.4543 65.2241 62.4678 65.2261 62.4749C65.2269 62.4778 65.2271 62.4799 65.2273 62.4805L66.6166 67.2226L62.0756 65.6192ZM62.0756 65.6192L62.0763 65.6199L62.0777 65.62C62.0776 65.62 62.0768 65.6196 62.0756 65.6192Z" fill="#AACD93" stroke="#80A867" stroke-width="5"/>
<path d="M144.118 147.395C141.787 147.28 139.457 147.165 137.126 147.05C136.653 152.414 136.216 157.671 135.81 162.982C131.231 257.885 121.847 358.149 176.18 450.245C179.592 455.08 183.52 459.921 187.808 464.349C195.219 456.677 202.63 449.005 210.041 441.333C206.777 438.474 203.581 435.138 200.656 431.631C149.422 360.625 145.765 256.522 144.054 163.289C144.043 157.997 144.062 152.753 144.118 147.395Z" fill="#80A867"/>
</svg>
