<svg width="290" height="467" viewBox="0 0 290 467" fill="none" xmlns="http://www.w3.org/2000/svg">
<path d="M64.9121 65.6192L64.91 65.6185C64.9043 65.6165 64.8924 65.6128 64.8756 65.6072C64.842 65.5959 64.7862 65.5772 64.7097 65.5529C64.5566 65.5043 64.3199 65.4318 64.0077 65.3447C63.3823 65.1702 62.4559 64.9375 61.2922 64.7167C58.959 64.2742 55.7029 63.8872 52.0148 64.1026C44.6729 64.5314 35.6876 67.3287 28.6853 76.8511C22.0418 85.886 20.8207 101.246 26.6214 115.127C32.3492 128.833 44.8518 140.839 65.3197 143.159C80.1923 144.844 100.344 145.904 116.823 146.543C125.053 146.862 132.349 147.075 137.588 147.209C140.033 147.271 142.03 147.314 143.463 147.344C143.443 145.797 143.413 143.617 143.376 140.947C143.299 135.359 143.187 127.622 143.049 119.024C142.772 101.823 142.391 81.1957 141.968 67.4407C141.334 46.8311 131.327 32.8331 119.181 25.3755C106.891 17.8291 92.6956 17.1066 83.6449 22.5672C72.014 29.5847 68.1699 39.5052 67.1762 47.7296C66.6753 51.8757 66.9032 55.5963 67.2587 58.2822C67.4359 59.6216 67.6439 60.6944 67.8044 61.4214C67.8845 61.7844 67.9528 62.0605 67.9992 62.2398C68.0223 62.3291 68.0395 62.3948 68.0505 62.4346C68.0559 62.4543 68.0605 62.4678 68.0625 62.4749C68.0633 62.4778 68.0635 62.4799 68.0637 62.4805L69.4531 67.2226L64.9121 65.6192ZM64.9121 65.6192L64.9127 65.6199L64.9141 65.62C64.9141 65.62 64.9132 65.6196 64.9121 65.6192Z" fill="#AACD93" stroke="#80A867" stroke-width="5"/>
<path d="M147.344 142.531C147.356 137.12 147.398 129.582 147.522 121.079C147.771 104.052 148.346 83.2239 149.644 67.8319C151.431 46.6504 162.772 33.4756 175.912 27.2556C189.219 20.9562 204.118 21.8711 213.016 28.5287C222.394 35.5452 225.304 44.7598 225.884 52.3296C226.175 56.1327 225.873 59.5036 225.496 61.9223C225.309 63.1285 225.104 64.09 224.949 64.7395C224.872 65.0635 224.807 65.3092 224.764 65.4683C224.742 65.5478 224.726 65.6066 224.716 65.6416C224.711 65.6586 224.707 65.67 224.705 65.6759L223.256 70.3975L227.81 68.8589C227.811 68.8589 227.812 68.8578 227.815 68.8568C227.822 68.8546 227.835 68.8503 227.855 68.8442C227.893 68.832 227.956 68.8127 228.042 68.7867C228.215 68.7349 228.481 68.6576 228.83 68.5667C229.53 68.3847 230.564 68.1464 231.856 67.9333C234.449 67.5061 238.046 67.1879 242.071 67.6121C250.056 68.4534 259.749 72.1994 266.805 84.0516C272.296 93.2746 271.914 107.945 264.885 120.801C257.938 133.506 244.612 144.149 224.674 145.266C211.366 146.011 191.405 146.869 174.758 147.541C166.437 147.876 158.948 148.166 153.54 148.371C150.953 148.469 148.842 148.548 147.344 148.603C147.341 147.123 147.339 145.059 147.344 142.531Z" fill="#AACD93" stroke="#80A867" stroke-width="5"/>
<path d="M227.305 231.002L227.307 231.003C227.313 231.005 227.325 231.008 227.342 231.013C227.376 231.024 227.431 231.041 227.508 231.064C227.662 231.109 227.9 231.178 228.214 231.259C228.842 231.421 229.773 231.635 230.94 231.832C233.281 232.229 236.544 232.552 240.227 232.263C247.56 231.689 256.493 228.715 263.319 219.054C269.795 209.888 270.73 194.506 264.673 180.743C258.693 167.154 245.971 155.4 225.465 153.485C210.564 152.094 190.396 151.432 173.908 151.119C165.674 150.963 158.375 150.894 153.135 150.864C150.687 150.85 148.689 150.846 147.255 150.844C147.304 152.391 147.374 154.571 147.46 157.243C147.641 162.828 147.896 170.562 148.194 179.155C148.789 196.348 149.554 216.964 150.232 230.708C151.248 251.301 161.513 265.097 173.793 272.312C186.22 279.613 200.426 280.055 209.375 274.416C220.875 267.169 224.534 257.173 225.375 248.93C225.799 244.775 225.502 241.059 225.097 238.381C224.895 237.045 224.668 235.977 224.494 235.253C224.407 234.892 224.334 234.616 224.284 234.438C224.259 234.349 224.24 234.284 224.228 234.245C224.222 234.225 224.219 234.212 224.217 234.205C224.216 234.201 224.214 234.199 224.214 234.199L224.215 234.2L222.739 229.491L227.305 231.002ZM227.305 231.002L227.304 231.001L227.303 231.001C227.303 231.001 227.304 231.002 227.305 231.002Z" fill="#AACD93" stroke="#80A867" stroke-width="5"/>
<path d="M143.218 156.83C142.989 162.236 142.644 169.766 142.178 178.257C141.247 195.258 139.836 216.043 137.921 231.366C135.286 252.452 123.428 265.127 110.053 270.778C96.5071 276.501 81.6572 274.951 73.0307 267.916C63.9396 260.502 61.4017 251.168 61.126 243.579C60.9876 239.767 61.4245 236.412 61.8973 234.012C62.1331 232.815 62.3757 231.863 62.5564 231.221C62.6467 230.9 62.7215 230.657 62.7715 230.5C62.7964 230.421 62.8153 230.364 62.8268 230.33C62.8326 230.313 62.8372 230.301 62.8392 230.295L64.4726 225.649L59.8648 226.99L59.8641 226.991C59.8574 226.993 59.8441 226.996 59.8249 227.001C59.7863 227.012 59.7228 227.029 59.6358 227.051C59.4615 227.096 59.1924 227.161 58.8393 227.237C58.1326 227.389 57.0908 227.583 55.791 227.741C53.184 228.056 49.5769 228.22 45.5715 227.624C37.6267 226.442 28.0894 222.284 21.5131 210.136C16.3954 200.683 17.3682 186.041 24.9054 173.5C32.354 161.107 46.093 151.043 66.058 150.781C79.3839 150.606 99.3629 150.604 116.022 150.645C124.35 150.666 131.844 150.697 137.255 150.724C139.848 150.736 141.963 150.747 143.462 150.755C143.406 152.236 143.325 154.3 143.218 156.83Z" fill="#AACD93" stroke="#80A867" stroke-width="5"/>
<path d="M148.704 155.53C146.374 155.412 144.043 155.295 141.713 155.178C141.239 160.435 140.803 165.586 140.396 170.792C135.799 263.761 126.513 362.272 180.888 452.287C184.292 457.007 188.195 461.714 192.448 466.021C199.78 458.274 207.111 450.526 214.443 442.778C211.217 440.017 208.059 436.799 205.158 433.406C154.195 364.641 150.304 262.413 148.64 171.105C148.629 165.918 148.648 160.78 148.704 155.53Z" fill="#80A867"/>
</svg>
