<svg width="287" height="466" viewBox="0 0 287 466" fill="none" xmlns="http://www.w3.org/2000/svg">
<path d="M62.0759 65.6192L62.0739 65.6185C62.0682 65.6165 62.0563 65.6128 62.0395 65.6072C62.0058 65.5959 61.95 65.5772 61.8735 65.5529C61.7204 65.5043 61.4838 65.4318 61.1715 65.3447C60.5461 65.1702 59.6198 64.9375 58.456 64.7167C56.1228 64.2742 52.8668 63.8871 49.1786 64.1026C41.8368 64.5314 32.8514 67.3287 25.8491 76.8511C19.2056 85.886 17.9845 101.246 23.7853 115.127C29.5131 128.833 42.0157 140.839 62.4835 143.159C77.3561 144.844 97.5081 145.904 113.987 146.543C122.216 146.862 129.513 147.075 134.752 147.209C137.197 147.271 139.194 147.314 140.627 147.344C140.607 145.797 140.577 143.617 140.54 140.947C140.463 135.359 140.351 127.622 140.213 119.024C139.936 101.823 139.555 81.1957 139.132 67.4406C138.498 46.8311 128.491 32.8331 116.345 25.3755C104.054 17.8291 89.8594 17.1065 80.8087 22.5672C69.1778 29.5847 65.3337 39.5052 64.34 47.7295C63.8391 51.8757 64.067 55.5963 64.4225 58.2822C64.5997 59.6216 64.8077 60.6944 64.9682 61.4214C65.0484 61.7844 65.1166 62.0605 65.163 62.2398C65.1861 62.3291 65.2033 62.3948 65.2143 62.4346C65.2197 62.4543 65.2243 62.4678 65.2263 62.4749C65.2271 62.4778 65.2274 62.4799 65.2275 62.4805L66.6169 67.2226L62.0759 65.6192ZM62.0759 65.6192L62.0765 65.6199L62.0779 65.62C62.0779 65.62 62.077 65.6196 62.0759 65.6192Z" fill="#AACD93" stroke="#80A867" stroke-width="5"/>
<path d="M144.508 142.531C144.52 137.12 144.562 129.582 144.686 121.079C144.935 104.052 145.51 83.2239 146.808 67.8319C148.595 46.6504 159.936 33.4755 173.075 27.2556C186.383 20.9562 201.282 21.8711 210.18 28.5287C219.558 35.5452 222.467 44.7598 223.047 52.3296C223.339 56.1327 223.036 59.5036 222.66 61.9222C222.473 63.1285 222.268 64.09 222.113 64.7394C222.036 65.0635 221.971 65.3092 221.927 65.4683C221.906 65.5478 221.889 65.6066 221.879 65.6415C221.874 65.6585 221.871 65.67 221.869 65.6759L220.42 70.3975L224.974 68.8589C224.974 68.8589 224.976 68.8578 224.979 68.8568C224.986 68.8546 224.999 68.8503 225.018 68.8442C225.057 68.832 225.12 68.8127 225.206 68.7867C225.378 68.7349 225.644 68.6576 225.994 68.5667C226.694 68.3847 227.727 68.1464 229.02 67.9333C231.612 67.5061 235.209 67.1879 239.235 67.6121C247.22 68.4534 256.912 72.1994 263.969 84.0516C269.459 93.2746 269.078 107.945 262.049 120.801C255.102 133.506 241.776 144.149 221.837 145.266C208.53 146.011 188.568 146.869 171.922 147.541C163.601 147.876 156.112 148.166 150.704 148.371C148.117 148.469 146.006 148.548 144.508 148.603C144.505 147.123 144.503 145.059 144.508 142.531Z" fill="#AACD93" stroke="#80A867" stroke-width="5"/>
<path d="M224.469 231.002L224.471 231.003C224.476 231.005 224.488 231.008 224.505 231.013C224.539 231.024 224.595 231.041 224.672 231.064C224.826 231.109 225.063 231.178 225.377 231.259C226.006 231.421 226.936 231.635 228.104 231.832C230.445 232.229 233.707 232.552 237.391 232.263C244.724 231.689 253.657 228.715 260.482 219.054C266.958 209.888 267.893 194.506 261.837 180.743C255.857 167.154 243.135 155.4 222.629 153.485C207.728 152.094 187.56 151.432 171.072 151.119C162.838 150.963 155.539 150.894 150.299 150.864C147.851 150.85 145.852 150.846 144.418 150.844C144.467 152.391 144.537 154.571 144.624 157.243C144.805 162.828 145.06 170.562 145.358 179.155C145.953 196.348 146.718 216.964 147.396 230.708C148.412 251.301 158.676 265.097 170.957 272.312C183.384 279.613 197.589 280.055 206.538 274.416C218.038 267.169 221.698 257.173 222.539 248.93C222.963 244.775 222.666 241.059 222.261 238.381C222.059 237.045 221.831 235.977 221.657 235.253C221.57 234.892 221.497 234.616 221.448 234.438C221.423 234.349 221.404 234.284 221.392 234.245C221.386 234.225 221.383 234.212 221.38 234.205C221.379 234.201 221.378 234.199 221.378 234.199L221.378 234.2L219.903 229.491L224.469 231.002ZM224.469 231.002L224.468 231.001L224.467 231.001C224.467 231.001 224.468 231.002 224.469 231.002Z" fill="#AACD93" stroke="#80A867" stroke-width="5"/>
<path d="M146.027 147.395C143.697 147.28 141.366 147.165 139.036 147.051C138.563 152.437 138.126 157.714 137.719 163.046C133.145 258.335 123.742 358.947 178.053 451.461C181.466 456.319 185.399 461.187 189.693 465.639C197.121 457.983 204.548 450.328 211.975 442.672C208.704 439.793 205.501 436.432 202.571 432.902C151.295 361.443 147.684 256.969 145.964 163.352C145.952 158.039 145.972 152.773 146.027 147.395Z" fill="#80A867"/>
</svg>
